@startuml
'https://plantuml.com/class-diagram

abstract class Pizza{
    public void prepare();
    public void bake();
    public void cut();
    public void box();
}

BeijingGreekPizza --|> Pizza
BeijingCheesePizza --|> Pizza
HebeiGreekPizza --|> Pizza
HebeiCheesePizza --|> Pizza
SimpleFactoryPizza --> Pizza
PizzaStore1 --o SimpleFactoryPizza
PizzaStore2 --o SimpleFactoryPizza

BeijingCheeseFactoryPizza --|> SimpleFactoryPizza
BeijingGreekFactoryPizza --|> SimpleFactoryPizza
HebeiCheeseFactoryPizza --|> SimpleFactoryPizza
HeBeiGreekFactoryPizza --|> SimpleFactoryPizza
BeijingCheeseFactoryPizza --> BeijingCheesePizza
BeijingGreekFactoryPizza --> BeijingGreekPizza

HeBeiGreekFactoryPizza --> HebeiGreekPizza
HeBeiCheeseFactoryPizza --> HebeiCheesePizza

class BeijingGreekPizza{
}
class HebeiGreekPizza{
}


class BeijingCheesePizza{
}
class HebeiCheesePizza{
}

class PizzaStore1{
    public void orderPizza()
}

class PizzaStore2{
    public void orderPizza()
}

abstract class SimpleFactoryPizza{
    public abstract Pizza createPizza(){}
}

class BeijingGreekFactoryPizza{
    public Pizza createPizza(){}
}
class BeijingCheeseFactoryPizza{
    public Pizza createPizza()
}
class HeBeiGreekFactoryPizza{
    public Pizza createPizza(){}
}
class HebeiCheeseFactoryPizza{
    public Pizza createPizza()
}
@enduml